<svg xmlns="http://www.w3.org/2000/svg" version="1.1" xmlns:xlink="http://www.w3.org/1999/xlink" xmlns:svgjs="http://svgjs.dev/svgjs" width="1000" height="1000" viewBox="0 0 1000 1000"><rect width="1000" height="1000" fill="#ffffff"></rect><g transform="matrix(0.7,0,0,0.7,149.57575757575756,288.84139861756694)"><svg viewBox="0 0 396 239" data-background-color="#161618" preserveAspectRatio="xMidYMid meet" height="603" width="1000" xmlns="http://www.w3.org/2000/svg" xmlns:xlink="http://www.w3.org/1999/xlink"><g id="tight-bounds" transform="matrix(1,0,0,1,0.2400000000000091,0.061491898605822826)"><svg viewBox="0 0 395.52 238.87701620278835" height="238.87701620278835" width="395.52"><g><svg viewBox="0 0 395.52 238.87701620278835" height="238.87701620278835" width="395.52"><g><svg viewBox="0 0 395.52 238.87701620278835" height="238.87701620278835" width="395.52"><g id="textblocktransform"><svg viewBox="0 0 395.52 238.87701620278835" height="238.87701620278835" width="395.52" id="textblock"><g><rect width="395.52" height="165.6712050697085" fill="none" stroke-width="9.018103199999999" stroke="#000000" data-fill-palette-color="none" data-stroke-palette-color="tertiary"></rect><rect width="395.52" height="73.20581113307985" y="165.6712050697085" fill="#000000" data-fill-palette-color="tertiary"></rect></g><g><svg viewBox="0 0 395.52 165.6712050697085" height="165.6712050697085" width="395.52"><g transform="matrix(1,0,0,1,23.607599999999998,23.607599999999998)"><svg width="348.3048" viewBox="3.759999990463257 -38.56999969482422 115.56999969482422 39.29999923706055" height="118.4560050697085" data-palette-color="#ffffff"><path d="M33.94-0.15L33.94-0.15 24.22 0.1Q24.12-3.08 24.07-6.2 24.02-9.33 23.93-12.5L23.93-12.5 14.75-12.06Q14.7-11.57 14.7-11.11 14.7-10.64 14.7-10.21L14.7-10.21Q14.7-7.47 14.92-4.76 15.14-2.05 15.38 0.63L15.38 0.63Q14.4 0.68 13.4 0.71 12.4 0.73 11.43 0.73L11.43 0.73Q9.52 0.73 7.59 0.66 5.66 0.59 3.76 0.59L3.76 0.59Q3.86-3.96 4-8.4 4.15-12.84 4.25-17.38L4.25-17.38Q4.35-21.83 4.37-26.17 4.39-30.52 4.44-34.91L4.44-34.91 12.6-34.91Q12.99-31.25 13.13-27.61 13.28-23.97 13.57-20.31L13.57-20.31Q15.92-20.36 18.21-20.36 20.51-20.36 22.9-20.41L22.9-20.41 23.39-36.23Q24.07-36.28 24.73-36.28 25.39-36.28 26.07-36.28L26.07-36.28Q28.03-36.28 29.91-36.18 31.79-36.08 33.69-35.74L33.69-35.74Q33.94-26.81 33.89-17.94 33.84-9.08 33.94-0.15ZM72.46-11.57L72.46-11.57 72.41-3.96Q70.16-3.52 67.97-3.13 65.77-2.73 63.52-2.44L63.52-2.44Q61.18-2.15 58.84-1.9 56.49-1.66 54.15-1.66L54.15-1.66Q53.46-1.66 52.15-1.71 50.83-1.76 49.41-1.9 48-2.05 46.73-2.27 45.46-2.49 44.87-2.83L44.87-2.83Q44.33-3.17 43.85-3.64 43.36-4.1 42.97-4.59L42.97-4.59Q41.94-5.86 41.26-7.37 40.57-8.89 40.18-10.5 39.79-12.11 39.62-13.77 39.45-15.43 39.45-17.04L39.45-17.04Q39.45-18.99 39.67-21.09 39.89-23.19 40.38-25.24 40.87-27.29 41.67-29.2 42.48-31.1 43.65-32.71L43.65-32.71Q43.99-33.15 44.53-33.79 45.07-34.42 45.6-34.72L45.6-34.72Q46.92-35.45 48.56-35.94 50.19-36.43 51.95-36.69 53.71-36.96 55.44-37.08 57.18-37.21 58.64-37.21L58.64-37.21Q61.42-37.21 64.21-36.89 66.99-36.57 69.63-35.79L69.63-35.79Q69.53-34.47 69.48-33.13 69.43-31.79 69.43-30.47L69.43-30.47Q69.43-27.29 69.58-24.07L69.58-24.07Q67.38-24.9 64.99-25.27 62.6-25.63 60.25-25.63L60.25-25.63Q59.76-25.63 58.84-25.56 57.91-25.49 56.74-25.37 55.56-25.24 54.32-25.05 53.07-24.85 52-24.56 50.93-24.27 50.12-23.88 49.31-23.49 49.07-23.05L49.07-23.05Q48.87-22.66 48.75-21.95 48.63-21.24 48.56-20.46 48.48-19.68 48.46-18.95 48.44-18.21 48.44-17.77L48.44-17.77Q48.44-17.33 48.53-16.02 48.63-14.7 48.78-13.21 48.92-11.72 49.14-10.5 49.36-9.28 49.61-9.08L49.61-9.08Q49.85-8.94 50.41-8.91 50.97-8.89 51.17-8.89L51.17-8.89Q53.56-8.89 56.3-9.13 59.03-9.38 61.84-9.79 64.65-10.21 67.38-10.67 70.11-11.13 72.46-11.57ZM111.81-35.99L119.33-35.6Q118.31-26.46 116.79-17.85 115.28-9.23 113.23-0.24L113.23-0.24Q112.69-0.2 112.1-0.2 111.52-0.2 110.98-0.2L110.98-0.2Q109.71-0.2 108.47-0.24 107.22-0.29 105.95-0.54L105.95-0.54Q104.39-3.81 102.68-7.01 100.97-10.21 99.46-13.57L99.46-13.57Q98.77-11.91 97.92-10.35 97.07-8.79 96.09-7.23L96.09-7.23Q94.82-5.32 93.65-3.37 92.48-1.42 91.35 0.59L91.35 0.59 83.39 0.39Q82.27-4 81.27-8.3 80.27-12.6 79.29-16.99L79.29-16.99Q78.02-22.46 76.68-27.81 75.34-33.15 73.92-38.57L73.92-38.57 88.08-38.57Q88.28-36.96 88.42-35.35 88.57-33.74 88.72-32.18L88.72-32.18Q89.11-27.93 89.59-23.75 90.08-19.58 90.57-15.33L90.57-15.33Q91.4-18.31 92.26-21.24 93.11-24.17 94.14-27.1L94.14-27.1Q95.01-29.74 95.84-32.3 96.67-34.86 97.46-37.5L97.46-37.5 99.85-37.5Q101.46-31.59 103.46-25.9 105.46-20.21 107.81-14.55L107.81-14.55Q109.03-19.87 109.93-25.24 110.83-30.62 111.81-35.99L111.81-35.99Z" opacity="1" transform="matrix(1,0,0,1,0,0)" fill="#000000" class="undefined-text-0" data-fill-palette-color="primary" id="text-0"></path></svg></g></svg></g></svg></g></svg></g></svg></g><defs></defs></svg><rect width="395.52" height="238.87701620278835" fill="none" stroke="none" visibility="hidden"></rect></g></svg></g></svg>